HIERARCHY
ROOT Hips
{
	OFFSET 0.000000 71.427986 0.000000
	CHANNELS 6 Xposition Yposition Zposition Xrotation Yrotation Zrotation
	JOINT Pelvis
	{
		OFFSET 0.000000 0.000000 0.000000
		CHANNELS 3 Xrotation Yrotation Zrotation
		JOINT LeftUpLeg
		{
			OFFSET 6.797100 -2.508499 -1.318700
			CHANNELS 3 Xrotation Yrotation Zrotation
			JOINT LeftLeg
			{
				OFFSET 0.069008 -29.241863 0.690200
				CHANNELS 3 Xrotation Yrotation Zrotation
				JOINT LeftFoot
				{
					OFFSET -0.069008 -29.568123 -0.266800
					CHANNELS 3 Xrotation Yrotation Zrotation
					JOINT LeftToeBase
					{
						OFFSET 3.145500 -8.631000 16.059900
						CHANNELS 3 Xrotation Yrotation Zrotation
						End Site
						{
							OFFSET 0.000000 18.501587 0.000000
						}
					}
				}
			}
			JOINT Left_ShortSleeve
			{
				OFFSET 0.265923 -10.480953 1.153800
				CHANNELS 3 Xrotation Yrotation Zrotation
				End Site
				{
					OFFSET 1.725763 19.823879 0.000000
				}
			}
		}
		JOINT RightUpLeg
		{
			OFFSET -6.797100 -2.508499 -1.318700
			CHANNELS 3 Xrotation Yrotation Zrotation
			JOINT RightLeg
			{
				OFFSET -0.082453 -29.241932 0.688000
				CHANNELS 3 Xrotation Yrotation Zrotation
				JOINT RightFoot
				{
					OFFSET 0.082453 -29.568058 -0.264600
					CHANNELS 3 Xrotation Yrotation Zrotation
					JOINT RightToeBase
					{
						OFFSET -3.115300 -8.682800 16.113400
						CHANNELS 3 Xrotation Yrotation Zrotation
						End Site
						{
							OFFSET 0.000000 18.567114 0.000000
						}
					}
				}
			}
			JOINT Right_ShortSleeve
			{
				OFFSET -0.265923 -10.480953 1.153800
				CHANNELS 3 Xrotation Yrotation Zrotation
				End Site
				{
					OFFSET -1.725766 19.823910 0.000000
				}
			}
		}
	}
	JOINT Spine
	{
		OFFSET 0.000000 13.368103 0.470500
		CHANNELS 3 Xrotation Yrotation Zrotation
		JOINT Spine1
		{
			OFFSET 0.147000 13.837402 0.538800
			CHANNELS 3 Xrotation Yrotation Zrotation
			JOINT Spine2
			{
				OFFSET 0.168000 16.242897 -1.435500
				CHANNELS 3 Xrotation Yrotation Zrotation
				JOINT Neck
				{
					OFFSET 0.217200 18.631500 -1.679100
					CHANNELS 3 Xrotation Yrotation Zrotation
					JOINT Head
					{
						OFFSET 0.000000 6.599396 1.385900
						CHANNELS 3 Xrotation Yrotation Zrotation
						JOINT Hat
						{
							OFFSET -0.532200 27.220596 -10.096100
							CHANNELS 3 Xrotation Yrotation Zrotation
							End Site
							{
								OFFSET 0.000000 22.029861 0.000000
							}
						}
						JOINT HairD
						{
							OFFSET -10.777400 17.437393 -1.325900
							CHANNELS 3 Xrotation Yrotation Zrotation
							JOINT HairD1
							{
								OFFSET -3.290299 -11.051193 1.062200
								CHANNELS 3 Xrotation Yrotation Zrotation
								End Site
								{
									OFFSET 0.000000 11.579437 0.000000
								}
							}
						}
						JOINT HairB
						{
							OFFSET -10.777400 17.437393 1.467900
							CHANNELS 3 Xrotation Yrotation Zrotation
							JOINT HairB1
							{
								OFFSET -1.561200 -12.956299 3.590200
								CHANNELS 3 Xrotation Yrotation Zrotation
								End Site
								{
									OFFSET 0.000000 13.534866 0.000000
								}
							}
						}
						JOINT HairA
						{
							OFFSET 9.713100 17.437393 1.467900
							CHANNELS 3 Xrotation Yrotation Zrotation
							JOINT HairA1
							{
								OFFSET 1.561200 -12.956299 3.590200
								CHANNELS 3 Xrotation Yrotation Zrotation
								End Site
								{
									OFFSET 0.000000 13.534866 0.000000
								}
							}
						}
						JOINT HairC
						{
							OFFSET 9.713100 17.437393 -1.325900
							CHANNELS 3 Xrotation Yrotation Zrotation
							JOINT HairC1
							{
								OFFSET 3.290300 -11.051193 1.062200
								CHANNELS 3 Xrotation Yrotation Zrotation
								End Site
								{
									OFFSET 0.000000 11.579437 0.000000
								}
							}
						}
					}
				}
				JOINT LeftShoulder
				{
					OFFSET 5.101800 15.108002 -2.763700
					CHANNELS 3 Xrotation Yrotation Zrotation
					JOINT LeftArm
					{
						OFFSET 9.825497 2.506317 -1.597400
						CHANNELS 3 Xrotation Yrotation Zrotation
						JOINT LeftForeArm
						{
							OFFSET 21.966244 0.000000 0.000000
							CHANNELS 3 Xrotation Yrotation Zrotation
							JOINT LeftHand
							{
								OFFSET 33.879036 0.000000 0.000000
								CHANNELS 3 Xrotation Yrotation Zrotation
								JOINT LeftHandThumb1
								{
									OFFSET 6.715286 -2.359680 3.363841
									CHANNELS 3 Xrotation Yrotation Zrotation
									JOINT LeftHandThumb2
									{
										OFFSET 2.507072 -1.447464 1.447461
										CHANNELS 3 Xrotation Yrotation Zrotation
										JOINT LeftHandThumb3
										{
											OFFSET 2.898338 -1.673355 1.673357
											CHANNELS 3 Xrotation Yrotation Zrotation
											End Site
											{
												OFFSET -0.295959 3.727692 -0.131651
											}
										}
									}
								}
								JOINT LeftHandIndex1
								{
									OFFSET 14.190811 -0.254547 3.840278
									CHANNELS 3 Xrotation Yrotation Zrotation
									JOINT LeftHandIndex2
									{
										OFFSET 3.551727 0.000000 -0.000000
										CHANNELS 3 Xrotation Yrotation Zrotation
										JOINT LeftHandIndex3
										{
											OFFSET 2.894196 0.000000 0.000000
											CHANNELS 3 Xrotation Yrotation Zrotation
											End Site
											{
												OFFSET -1.000603 2.690872 0.366626
											}
										}
									}
								}
								JOINT LeftHandMiddle1
								{
									OFFSET 13.776489 0.000000 0.000000
									CHANNELS 3 Xrotation Yrotation Zrotation
									JOINT LeftHandMiddle2
									{
										OFFSET 3.438232 0.000000 0.000000
										CHANNELS 3 Xrotation Yrotation Zrotation
										JOINT LeftHandMiddle3
										{
											OFFSET 3.691551 0.000000 0.000000
											CHANNELS 3 Xrotation Yrotation Zrotation
											End Site
											{
												OFFSET -1.082298 3.499527 0.457670
											}
										}
									}
								}
								JOINT LeftHandRing1
								{
									OFFSET 13.966164 -0.268127 -3.067488
									CHANNELS 3 Xrotation Yrotation Zrotation
									JOINT LeftHandRing2
									{
										OFFSET 3.162567 0.000000 0.000000
										CHANNELS 3 Xrotation Yrotation Zrotation
										JOINT LeftHandRing3
										{
											OFFSET 3.324348 0.000000 0.000000
											CHANNELS 3 Xrotation Yrotation Zrotation
											End Site
											{
												OFFSET -0.861900 3.184998 0.405154
											}
										}
									}
								}
								JOINT LeftHandPinky1
								{
									OFFSET 13.131393 -0.168503 -5.746925
									CHANNELS 3 Xrotation Yrotation Zrotation
									JOINT LeftHandPinky2
									{
										OFFSET 2.849182 0.000000 0.000000
										CHANNELS 3 Xrotation Yrotation Zrotation
										JOINT LeftHandPinky3
										{
											OFFSET 2.805038 0.000000 0.000000
											CHANNELS 3 Xrotation Yrotation Zrotation
											End Site
											{
												OFFSET -0.882500 2.642609 0.325652
											}
										}
									}
								}
							}
							JOINT Left_Sleeve
							{
								OFFSET 6.592125 -0.646545 0.805568
								CHANNELS 3 Xrotation Yrotation Zrotation
								End Site
								{
									OFFSET -0.000179 20.275787 -0.000000
								}
							}
						}
					}
				}
				JOINT RightShoulder
				{
					OFFSET -5.731700 15.108002 -2.763700
					CHANNELS 3 Xrotation Yrotation Zrotation
					JOINT RightArm
					{
						OFFSET -9.825497 2.506317 -1.597400
						CHANNELS 3 Xrotation Yrotation Zrotation
						JOINT RightForeArm
						{
							OFFSET -21.966242 0.000000 0.000000
							CHANNELS 3 Xrotation Yrotation Zrotation
							JOINT RightHand
							{
								OFFSET -33.879032 0.000000 0.000000
								CHANNELS 3 Xrotation Yrotation Zrotation
								JOINT RightHandThumb1
								{
									OFFSET -6.715286 -2.359680 3.363841
									CHANNELS 3 Xrotation Yrotation Zrotation
									JOINT RightHandThumb2
									{
										OFFSET -2.507072 -1.447464 1.447461
										CHANNELS 3 Xrotation Yrotation Zrotation
										JOINT RightHandThumb3
										{
											OFFSET -2.898338 -1.673355 1.673357
											CHANNELS 3 Xrotation Yrotation Zrotation
											End Site
											{
												OFFSET 0.295959 3.727692 -0.131651
											}
										}
									}
								}
								JOINT RightHandIndex1
								{
									OFFSET -14.190811 -0.254547 3.840278
									CHANNELS 3 Xrotation Yrotation Zrotation
									JOINT RightHandIndex2
									{
										OFFSET -3.551727 0.000000 -0.000000
										CHANNELS 3 Xrotation Yrotation Zrotation
										JOINT RightHandIndex3
										{
											OFFSET -2.894196 0.000000 0.000000
											CHANNELS 3 Xrotation Yrotation Zrotation
											End Site
											{
												OFFSET 1.000603 2.690872 0.366626
											}
										}
									}
								}
								JOINT RightHandMiddle1
								{
									OFFSET -13.776489 0.000000 0.000000
									CHANNELS 3 Xrotation Yrotation Zrotation
									JOINT RightHandMiddle2
									{
										OFFSET -3.438232 0.000000 0.000000
										CHANNELS 3 Xrotation Yrotation Zrotation
										JOINT RightHandMiddle3
										{
											OFFSET -3.691551 0.000000 0.000000
											CHANNELS 3 Xrotation Yrotation Zrotation
											End Site
											{
												OFFSET 1.082298 3.499527 0.457670
											}
										}
									}
								}
								JOINT RightHandRing1
								{
									OFFSET -13.966164 -0.268127 -3.067488
									CHANNELS 3 Xrotation Yrotation Zrotation
									JOINT RightHandRing2
									{
										OFFSET -3.162567 0.000000 0.000000
										CHANNELS 3 Xrotation Yrotation Zrotation
										JOINT RightHandRing3
										{
											OFFSET -3.324348 0.000000 0.000000
											CHANNELS 3 Xrotation Yrotation Zrotation
											End Site
											{
												OFFSET 0.861900 3.184998 0.405154
											}
										}
									}
								}
								JOINT RightHandPinky1
								{
									OFFSET -13.131393 -0.168503 -5.746925
									CHANNELS 3 Xrotation Yrotation Zrotation
									JOINT RightHandPinky2
									{
										OFFSET -2.849182 0.000000 0.000000
										CHANNELS 3 Xrotation Yrotation Zrotation
										JOINT RightHandPinky3
										{
											OFFSET -2.805038 0.000000 0.000000
											CHANNELS 3 Xrotation Yrotation Zrotation
											End Site
											{
												OFFSET 0.882500 2.642609 0.325652
											}
										}
									}
								}
							}
							JOINT Right_Sleeve
							{
								OFFSET -6.592125 -0.646545 0.805568
								CHANNELS 3 Xrotation Yrotation Zrotation
								End Site
								{
									OFFSET 0.000179 20.275787 -0.000000
								}
							}
						}
					}
				}
				JOINT Bind_Right_JacketString
				{
					OFFSET -3.534800 11.969597 7.200700
					CHANNELS 3 Xrotation Yrotation Zrotation
					JOINT Bind_Right_JacketString1
					{
						OFFSET -0.319900 -6.102600 2.794100
						CHANNELS 3 Xrotation Yrotation Zrotation
						End Site
						{
							OFFSET 0.000000 6.719452 0.000000
						}
					}
				}
				JOINT Bind_Left_JacketString
				{
					OFFSET 2.904800 11.969597 7.200700
					CHANNELS 3 Xrotation Yrotation Zrotation
					JOINT Bind_Left_JacketString1
					{
						OFFSET 0.364800 -5.904503 3.186800
						CHANNELS 3 Xrotation Yrotation Zrotation
						End Site
						{
							OFFSET 0.000000 6.719513 0.000000
						}
					}
				}
				JOINT HairE
				{
					OFFSET 5.915200 17.612701 -11.592200
					CHANNELS 3 Xrotation Yrotation Zrotation
					JOINT HairE1
					{
						OFFSET 0.289200 -7.171898 -1.284500
						CHANNELS 3 Xrotation Yrotation Zrotation
						End Site
						{
							OFFSET 0.000000 7.291756 0.000000
						}
					}
				}
				JOINT HairF
				{
					OFFSET -0.864800 17.612701 -11.592200
					CHANNELS 3 Xrotation Yrotation Zrotation
					JOINT HairF1
					{
						OFFSET 0.000000 -14.087097 -2.127501
						CHANNELS 3 Xrotation Yrotation Zrotation
						End Site
						{
							OFFSET 0.000000 14.246841 0.000000
						}
					}
				}
				JOINT HairG
				{
					OFFSET -8.087700 17.612701 -11.592200
					CHANNELS 3 Xrotation Yrotation Zrotation
					JOINT HairG1
					{
						OFFSET -0.293600 -6.081398 -0.910100
						CHANNELS 3 Xrotation Yrotation Zrotation
						End Site
						{
							OFFSET 0.000000 6.156120 0.000000
						}
					}
				}
			}
		}
	}
	JOINT Pouch
	{
		OFFSET 0.000000 4.394501 10.847300
		CHANNELS 3 Xrotation Yrotation Zrotation
		End Site
		{
			OFFSET 0.000000 21.880577 0.000000
		}
	}
	JOINT Bag
	{
		OFFSET -13.229000 4.813004 -0.593300
		CHANNELS 3 Xrotation Yrotation Zrotation
		End Site
		{
			OFFSET 0.000000 21.880577 0.000000
		}
	}
	JOINT OccupyGuyFacialAnim_Joint
	{
		OFFSET 1.000000 -70.206398 -1.655000
		CHANNELS 3 Xrotation Yrotation Zrotation
		End Site
		{
			OFFSET 0.000000 21.880577 0.000000
		}
	}
}
MOTION
Frames: 4
Frame Time: 0.016667
8.474592 67.754883 0.096078 4.155708 -46.502896 3.281369 -0.000000 -0.000000 0.000000 -22.133184 15.916941 5.445901 36.860721 24.205405 3.497353 -12.665928 21.250112 -11.700705 -0.000000 0.000000 -0.000000 -0.000000 0.000001 0.000001 -26.028581 -39.099821 -21.409100 36.033619 -12.762386 -2.509244 -15.704915 -7.055590 12.110974 0.000000 0.000000 0.000000 -0.000001 0.000000 -0.000001 10.012540 -5.761787 2.274773 3.056896 -1.359250 -0.696758 -8.919072 -4.431370 -1.692196 -8.566928 -5.142916 -4.413995 10.444448 -20.693646 6.191011 -0.000000 -0.000000 -0.000000 -0.000000 -0.000000 -0.000000 -0.000000 -0.000000 -0.000000 -0.000000 -0.000000 -0.000000 -0.000000 -0.000000 -0.000000 -0.000000 -0.000000 -0.000000 -0.000000 -0.000000 -0.000000 -0.000000 -0.000000 -0.000000 -0.000000 -0.000000 -0.000000 -0.955896 -3.915912 -2.538330 13.282560 6.823604 -62.263608 -0.021041 -42.236865 -0.010382 -13.882441 -0.489230 0.693293 10.625203 -8.591985 14.272394 -0.294840 14.668202 -7.134998 0.000000 0.000001 -0.000000 1.031657 -1.592159 -15.118835 -0.015785 -1.091869 -24.286220 -0.000000 -0.000003 -0.000002 1.615792 -0.182609 -33.849277 -0.338694 -1.382261 -28.184994 -0.000000 -0.000001 0.000001 -0.356905 -2.845893 -41.642946 -0.398106 -1.519196 -29.911878 -0.000001 0.000000 -0.000001 0.340453 -1.216950 -35.934083 -0.410240 -1.748674 -33.792525 -0.000003 -0.000000 -0.000001 0.000001 0.000001 -0.000002 -0.771035 0.311199 0.884123 3.113837 10.823052 70.823850 0.587850 47.471003 -0.255419 14.368655 15.131241 2.773449 8.265274 7.734433 -18.880815 5.407346 -20.572678 9.835187 -0.000000 0.000001 0.000000 0.428033 3.999538 18.226213 -0.076238 1.217080 27.275387 -0.000000 0.000001 0.000001 -5.761811 0.366109 35.692803 -0.334676 1.374772 28.018551 0.000001 0.000003 -0.000002 -11.821796 -3.411370 42.352473 -0.510542 1.699983 33.914317 0.000001 0.000001 -0.000001 -5.981504 1.104407 36.964513 -0.585432 1.985532 39.176145 -0.000000 -0.000001 0.000004 0.000002 0.000004 -0.000002 -0.000000 0.000001 -0.000000 -0.000000 -0.000001 0.000000 -0.000000 0.000001 -0.000000 -0.000000 0.000001 -0.000000 -0.000000 0.000001 -0.000000 -0.000000 -0.000001 -0.000000 -0.000000 0.000001 -0.000000 -0.000000 0.000001 -0.000000 -0.000000 0.000001 -0.000000 -0.000000 -0.000001 -0.000000 -0.000000 -0.000000 0.000000 -0.000000 -0.000000 0.000000 -0.000000 -0.000000 0.000000 
8.294569 67.756645 -0.081275 3.939308 -48.223188 3.409375 -0.000000 -0.000003 0.000000 -21.645431 16.268209 5.592012 36.894103 25.198205 3.461662 -12.633370 21.643657 -12.282440 -0.000000 -0.000001 -0.000000 -0.000001 -0.000004 -0.000001 -26.192942 -38.865173 -21.687169 35.965546 -12.499834 -2.486782 -15.135006 -6.876614 11.908978 -0.000000 -0.000000 0.000000 0.000000 0.000000 -0.000000 9.935577 -5.782335 2.204787 2.967050 -1.211550 -0.652807 -9.020275 -4.366686 -1.601919 -8.544199 -4.716533 -4.541433 10.608241 -19.712425 5.755015 -0.000000 -0.000000 -0.000000 -0.000000 -0.000000 -0.000000 -0.000000 -0.000000 0.000000 -0.000000 -0.000000 -0.000000 -0.000000 0.000000 0.000000 -0.000000 -0.000000 -0.000000 -0.000000 0.000000 0.000000 -0.000000 -0.000000 -0.000000 -0.000000 -0.000000 -0.000000 -0.878238 -4.226536 -2.233008 13.531511 6.780619 -62.153021 -0.020243 -42.480594 -0.009963 -13.978593 -1.700590 0.681735 10.610726 -8.609794 14.293145 -0.357689 14.631831 -7.082080 0.000005 -0.000001 0.000002 1.074740 -1.682914 -15.031763 -0.013506 -1.086866 -24.167991 0.000002 0.000001 -0.000002 1.556056 -0.222458 -33.860308 -0.339056 -1.382953 -28.200490 -0.000001 0.000000 0.000002 -0.383724 -2.808722 -41.684245 -0.402820 -1.527364 -30.088735 -0.000002 -0.000002 -0.000000 0.287500 -1.145993 -35.957196 -0.410973 -1.749773 -33.816724 -0.000001 -0.000001 -0.000001 0.000001 0.000001 0.000001 -0.846761 0.820783 0.916897 2.989865 9.871404 70.799542 0.512274 47.191082 -0.227961 14.622730 15.064742 2.863407 8.265280 7.734433 -18.880818 5.407346 -20.572680 9.835191 0.000001 -0.000002 0.000003 0.423803 3.988746 18.092831 -0.070888 1.206697 27.024436 0.000001 0.000002 0.000001 -5.693465 0.419494 35.471317 -0.331019 1.367866 27.864943 0.000001 -0.000001 -0.000003 -11.722676 -3.292657 42.202571 -0.507877 1.695982 33.824319 0.000001 0.000000 -0.000002 -5.917752 1.153296 36.846548 -0.580054 1.978843 39.019208 0.000003 0.000002 0.000003 0.000004 0.000004 0.000001 -0.000000 0.000000 0.000000 0.000000 -0.000001 0.000000 -0.000000 0.000000 -0.000000 -0.000000 0.000000 -0.000000 -0.000000 0.000000 0.000000 0.000000 -0.000001 -0.000000 -0.000000 0.000000 -0.000000 -0.000000 0.000000 -0.000000 -0.000000 0.000000 0.000000 0.000000 -0.000001 -0.000000 -0.000000 -0.000003 0.000000 -0.000000 -0.000003 0.000000 -0.000000 -0.000003 0.000000 
8.106019 67.764648 -0.314919 3.765606 -49.786792 3.455296 0.000000 -0.000004 0.000000 -21.617629 16.572561 5.960056 37.366445 26.399204 3.440048 -12.471768 21.509014 -12.466693 -0.000000 0.000000 0.000000 0.000001 0.000002 -0.000000 -26.364537 -38.613634 -21.626510 36.278454 -11.800440 -2.450984 -15.544590 -6.252515 11.357146 -0.000000 0.000000 0.000000 -0.000001 0.000000 -0.000000 9.866229 -5.734854 2.148370 2.895061 -1.071952 -0.562728 -9.100045 -4.316099 -1.464391 -8.530112 -4.413663 -4.597618 10.720722 -18.797789 5.274394 0.000000 -0.000000 -0.000000 0.000000 -0.000000 -0.000000 0.000000 -0.000000 -0.000000 0.000000 -0.000000 -0.000000 0.000000 0.000000 -0.000000 0.000000 -0.000000 -0.000000 0.000000 0.000000 -0.000000 0.000000 -0.000000 -0.000000 0.000000 -0.000000 -0.000000 -0.800623 -4.500658 -1.933184 13.652185 6.640063 -62.119607 -0.019425 -42.599791 -0.009518 -13.882677 -2.727304 0.797325 10.581101 -8.637570 14.338666 -0.414984 14.605909 -7.028257 0.000000 0.000001 -0.000001 1.114352 -1.838912 -14.860074 -0.009419 -1.077753 -23.952780 0.000002 0.000002 -0.000002 1.447502 -0.296460 -33.824565 -0.338981 -1.382828 -28.197582 -0.000000 0.000001 0.000003 -0.428767 -2.746242 -41.695375 -0.407282 -1.535074 -30.256922 -0.000004 0.000003 0.000003 0.203714 -1.028223 -35.966233 -0.410859 -1.749613 -33.813073 -0.000002 0.000001 0.000001 -0.000001 0.000001 -0.000002 -0.922056 1.266294 0.964825 2.893472 8.881772 70.701563 0.416272 46.895847 -0.192447 14.871094 14.853421 2.950800 8.265282 7.734432 -18.880820 5.407341 -20.572678 9.835188 -0.000004 0.000000 -0.000000 0.417024 3.978084 17.908616 -0.063690 1.192423 26.680708 -0.000002 0.000000 0.000000 -5.592593 0.494491 35.169074 -0.326007 1.358339 27.654881 0.000001 0.000001 -0.000001 -11.569896 -3.123218 41.996091 -0.504092 1.690307 33.696212 0.000001 0.000001 -0.000003 -5.821086 1.217419 36.684891 -0.572469 1.969455 38.798230 -0.000001 -0.000002 0.000000 -0.000001 -0.000001 -0.000001 -0.000000 -0.000001 0.000000 0.000000 -0.000001 0.000000 -0.000000 -0.000001 0.000000 -0.000000 -0.000001 0.000000 -0.000000 -0.000001 0.000000 0.000000 -0.000001 -0.000000 -0.000000 -0.000001 0.000000 -0.000000 -0.000001 0.000000 -0.000000 -0.000001 0.000000 0.000000 -0.000001 -0.000000 0.000000 -0.000004 0.000000 0.000000 -0.000004 0.000000 0.000000 -0.000004 0.000000 
7.908989 67.778702 -0.602685 3.609416 -51.182453 3.399967 -0.000000 0.000001 -0.000000 -22.284961 16.710123 6.828560 38.791742 27.274373 3.401695 -11.336014 21.060571 -13.442514 -0.000000 -0.000000 0.000000 -0.000001 -0.000002 0.000000 -26.270110 -38.289139 -21.201527 36.487215 -11.314025 -2.429763 -15.907251 -5.788024 10.837771 -0.000000 0.000000 0.000000 0.000001 -0.000000 0.000000 9.803827 -5.616004 2.098039 2.839598 -0.944647 -0.432626 -9.159908 -4.281930 -1.286579 -8.508165 -4.235826 -4.578831 10.792602 -17.958422 4.764734 -0.000000 -0.000000 -0.000000 -0.000000 -0.000000 -0.000000 -0.000000 -0.000000 0.000000 -0.000000 -0.000000 -0.000000 -0.000000 -0.000000 -0.000000 -0.000000 -0.000000 -0.000000 -0.000000 -0.000000 -0.000000 -0.000000 -0.000000 -0.000000 -0.000000 -0.000000 -0.000000 -0.726153 -4.749518 -1.633528 13.608976 6.402175 -62.096631 -0.018530 -42.554056 -0.009083 -13.603429 -3.571051 1.026153 10.535363 -8.677417 14.409857 -0.467890 14.589192 -6.973095 0.000002 0.000001 -0.000002 1.151721 -2.065159 -14.597895 -0.003377 -1.063948 -23.629342 0.000002 0.000001 -0.000000 1.286365 -0.405975 -33.745031 -0.338487 -1.381881 -28.176907 -0.000000 0.000004 0.000001 -0.495298 -2.655296 -41.684098 -0.411501 -1.542247 -30.413313 -0.000001 -0.000000 -0.000002 0.084665 -0.856767 -35.964522 -0.409936 -1.748203 -33.782491 -0.000001 -0.000001 0.000001 0.000001 -0.000001 -0.000000 -0.995143 1.645273 1.031887 2.815499 7.867690 70.540083 0.304929 46.539481 -0.149984 15.123876 14.466172 3.017663 8.265282 7.734433 -18.880815 5.407345 -20.572677 9.835179 -0.000002 -0.000001 0.000003 0.408424 3.965416 17.675041 -0.054645 1.174363 26.246976 0.000003 0.000003 -0.000001 -5.466612 0.586054 34.785672 -0.319726 1.346280 27.387891 -0.000001 0.000003 -0.000000 -11.377711 -2.913329 41.731052 -0.499261 1.683038 33.531420 0.000001 0.000000 -0.000005 -5.699275 1.294646 36.479210 -0.562727 1.957322 38.514211 0.000001 0.000003 -0.000004 -0.000001 -0.000002 0.000002 -0.000000 -0.000001 0.000000 0.000000 0.000000 -0.000000 -0.000000 -0.000001 0.000000 -0.000000 -0.000001 0.000000 -0.000000 -0.000001 0.000000 0.000000 0.000000 -0.000000 -0.000000 -0.000001 0.000000 -0.000000 -0.000001 0.000000 -0.000000 -0.000001 0.000000 0.000000 0.000000 -0.000000 -0.000000 0.000001 -0.000000 -0.000000 0.000001 -0.000000 -0.000000 0.000001 -0.000000 
